
<svg width="111" height="32" viewBox="0 0 111 32" fill="none" xmlns="http://www.w3.org/2000/svg">
<path fill-rule="evenodd" clip-rule="evenodd" d="M0.00673058 8.90793L0 21.9922L0.925455 22.9176V7.98584L0.00673058 8.90793ZM22.5104 13.1549L8.78678 0.121151L8.17766 0.753826L8.18439 30.1867L9.10985 31.1121V17.9606L22.6249 31.0549L23.4426 30.2102L9.10985 16.3284V14.7736L24.294 29.3925L25.0748 28.5848L9.10985 13.1516V11.5497L25.9329 27.7536L26.7204 26.9392L9.10985 9.92088V8.36948L27.5449 26.1349L28.3728 25.3339L9.10985 6.74405V5.09505L29.2377 24.4455L30.0184 23.6378L9.10985 3.49654V1.71966L30.9472 22.7561L31.5664 22.1335L31.5597 9.02571L30.7049 8.19112L30.7554 21.06L29.8973 20.2893V7.39691L29.0795 6.57578L29.1131 19.5221L28.3055 18.6908L28.3223 5.81523L27.481 4.984L27.4709 17.937L26.6632 17.1058L26.6767 4.16287L25.8454 3.34174L25.832 16.352L25.0243 15.5712L25.0378 2.54416L24.1123 1.61871L24.119 14.7333L23.3821 13.9828L23.3854 0.871611L22.5003 0L22.5104 13.1549ZM6.48828 2.42638L6.48492 28.4872L7.41037 29.4127V1.5413L6.48828 2.42638ZM4.84939 4.06864L4.84602 26.8449L5.77148 27.7704L5.76811 3.16337L4.84939 4.06864ZM3.20039 5.70754V25.1959L4.12585 26.1214L4.11575 4.80564L3.20039 5.70754ZM1.55476 7.34307L1.5615 23.5503L2.48359 24.4758V6.43444L1.55476 7.34307Z" fill="#E71B18"/>
<path fill-rule="evenodd" clip-rule="evenodd" d="M51.1387 9.60892H45.578V9.32395L45.7534 8.98051L42.6844 8.46171L42.6918 21.5121L45.578 20.9495V20.1895H51.1387V25.8233H54.7922V20.1895H60.1994V21.4025L63.2465 20.9495V9.31664L63.473 8.91475L60.1994 8.46171V9.60161H54.7922L54.7849 6.83224L55.0772 6.52535L51.1314 5.26123V9.60892H51.1387ZM45.578 19.0496V10.6757H51.1387V19.0496H45.578ZM54.7922 19.0496V10.7488H60.1994V19.0496H54.7922Z" fill="black"/>
<path fill-rule="evenodd" clip-rule="evenodd" d="M69.4139 7.70913L67.1706 7.71644L67.3606 8.62251H69.4139V11.7426L66.2719 11.7499L66.5203 12.656L70.0496 12.7071L66.2572 16.2072V17.9171L69.4943 15.0162H72.4609L70.9484 16.536H70.1008V17.5225H70.9484V19.0935L66.2572 21.1906L66.2499 23.3024L70.9338 21.2491V24.6761L67.5579 24.698L68.7197 25.816L72.3586 25.8306L73.9516 24.245L73.9954 19.8242L77.0205 18.4797L76.9767 16.3826L74.0027 17.7125L73.9954 16.9306L76.056 15.2792L74.9599 14.1613H70.393L71.9275 12.6779L77.0644 12.6925L77.8608 11.5746V18.8231C78.0435 19.0935 79.8045 21.0226 79.8045 21.0518L75.0038 25.8306L78.3723 25.8379L81.3828 22.8859L83.9476 25.8306L87.3965 25.8379L83.2388 21.081L85.4748 18.8231V11.0777L85.694 10.7854L82.7419 9.30937L82.7273 18.0559L81.7263 19.2031L80.6229 18.0559L80.6083 12.1299L80.8275 11.8376L78.3285 10.7562L79.3734 9.2363L86.9873 9.21438L86.3224 7.56298L84.8756 8.32292H79.8264L80.9371 6.65691L81.2805 6.52538L78.8911 5.37087L75.0111 11.7134H73.0016L76.0341 8.92209L75.4933 7.70913H72.3879V6.77383L72.6071 6.29887L69.4212 5.27588V7.70913H69.4139ZM72.3879 8.6152H74.5142L72.3879 10.5735V8.6152Z" fill="black"/>
<path fill-rule="evenodd" clip-rule="evenodd" d="M108.257 12.4294L90.1718 12.4367L90.5152 13.3428H96.222L91.1947 22.7104L93.5549 25.4505H110.083L107.57 16.3094L103.427 16.346L103.938 16.8574L105.897 24.3837H94.3952L100.336 13.3428L110.814 13.3208L109.974 11.2603L108.257 12.4294Z" fill="black"/>
<path fill-rule="evenodd" clip-rule="evenodd" d="M92.8967 6.60553H105.786L107.482 5.69946L108.154 7.45315H93.2694L92.8967 6.60553Z" fill="black"/>
</svg>
